<svg width="30" height="30" viewBox="0 0 30 30" fill="none" xmlns="http://www.w3.org/2000/svg">
<path d="M0 6C0 2.68629 2.68629 0 6 0H24C27.3137 0 30 2.68629 30 6V24C30 27.3137 27.3137 30 24 30H6C2.68629 30 0 27.3137 0 24V6Z" fill="#000A23"/>
<path d="M6 0.5H24C27.0376 0.5 29.5 2.96243 29.5 6V24C29.5 27.0376 27.0376 29.5 24 29.5H6C2.96243 29.5 0.5 27.0376 0.5 24V6C0.5 2.96243 2.96243 0.5 6 0.5Z" stroke="white" stroke-opacity="0.2"/>
<path d="M17.5399 11.5763H14.852C14.5562 11.5763 14.3167 11.7915 14.342 12.0542C14.3646 12.2794 14.5759 12.4571 14.8351 12.4571H17.523C17.8188 12.4571 18.0583 12.2419 18.033 11.9792C18.0104 11.754 17.7991 11.5763 17.5399 11.5763ZM13.1531 11.3762H12.1641C12.0289 11.3762 11.9218 11.4738 11.9218 11.5939V12.4571C11.9218 12.5146 11.9472 12.5697 11.9922 12.6122C12.0373 12.6522 12.0993 12.6773 12.1641 12.6748H13.1502C13.1728 12.6748 13.1981 12.6722 13.2207 12.6672C13.3306 12.6372 13.3982 12.5496 13.3954 12.4571V11.5939C13.3954 11.4738 13.2883 11.3762 13.1531 11.3762ZM13.1531 13.5305H12.1641C12.0317 13.5305 11.9218 13.628 11.9218 13.7456V14.6239C11.9218 14.744 12.0317 14.8416 12.1641 14.8416H13.1531C13.2883 14.8416 13.3954 14.744 13.3954 14.6239V13.7456C13.3954 13.628 13.2855 13.5305 13.1531 13.5305ZM13.1531 15.7148H12.1641C12.0289 15.7148 11.9218 15.8124 11.9218 15.9325V16.8082C11.9218 16.9283 12.0317 17.0259 12.1641 17.0259H13.1531C13.2883 17.0259 13.3954 16.9283 13.3954 16.8082V15.9325C13.3954 15.8124 13.2883 15.7148 13.1531 15.7148ZM19.4981 23C19.3065 23 19.1233 22.9349 18.9881 22.8173L17.2328 21.5263H17.23L15.4775 22.8173C15.1929 23.0601 14.7393 23.0601 14.4547 22.8173L12.6994 21.5263H12.6966L11.0118 22.7598C10.7272 23.0075 10.2736 23.0075 9.989 22.7598L8.22806 21.2535C8.08437 21.1309 8.00266 20.9608 8.00266 20.7832V8.18852C7.98012 7.88077 8.10128 7.57551 8.34076 7.35033C8.58025 7.12514 8.91272 6.99753 9.26209 7.00004H18.6754C18.8698 7.00004 19.0557 7.06759 19.1938 7.19019L21.7802 9.38702C21.9211 9.50962 22 9.67726 22 9.85241V20.9033C22 21.0809 21.9183 21.251 21.7746 21.3736L20.0475 22.8198C19.8953 22.9349 19.7009 23 19.4981 23ZM12.6966 20.4329C12.8882 20.4329 13.0713 20.4979 13.2094 20.6155L14.9647 22.0692H14.9675L16.72 20.6155C17.0046 20.3728 17.4582 20.3728 17.7428 20.6155L19.4952 21.9091H19.4981L20.8871 20.9708V20.9683L20.8561 10.4154C20.8561 10.4129 20.8561 10.4129 20.8533 10.4129H18.3401C18.0611 10.4129 17.8076 10.1877 17.8076 9.93998V7.98085C17.8076 7.97835 17.8076 7.97835 17.8047 7.97835H9.10994C9.10712 7.97835 9.10712 7.97835 9.10712 7.98085V20.8532L10.4933 21.8015H10.4962L12.181 20.6155C12.3219 20.5004 12.5078 20.4329 12.6966 20.4329ZM17.5399 13.7406H14.852C14.5562 13.7406 14.3195 13.9558 14.342 14.216C14.3646 14.4412 14.5759 14.6164 14.8351 14.6164H17.523C17.8188 14.6164 18.0555 14.4012 18.033 14.141C18.0104 13.9158 17.7963 13.7406 17.5399 13.7406ZM17.5399 15.9225H14.852C14.5562 15.9225 14.3167 16.1376 14.342 16.4003C14.3646 16.6255 14.5759 16.8032 14.8351 16.8032H17.523C17.8188 16.8032 18.0583 16.588 18.033 16.3253C18.0104 16.0976 17.7991 15.9225 17.5399 15.9225Z" fill="url(#paint0_linear_2767_357)"/>
<defs>
<linearGradient id="paint0_linear_2767_357" x1="12.726" y1="7.73015" x2="15.2548" y2="22.3972" gradientUnits="userSpaceOnUse">
<stop stop-color="white"/>
<stop offset="1" stop-color="white" stop-opacity="0.3"/>
</linearGradient>
</defs>
</svg>
