<svg width="30" height="30" viewBox="0 0 30 30" fill="none" xmlns="http://www.w3.org/2000/svg">
<rect width="30" height="30" rx="6" fill="#000A23"/>
<rect x="0.5" y="0.5" width="29" height="29" rx="5.5" stroke="white" stroke-opacity="0.2"/>
<path d="M11.4385 11.2504C11.4385 11.1012 11.4977 10.9582 11.6032 10.8527C11.7087 10.7472 11.8518 10.6879 12.001 10.6879H17.2502C17.3994 10.6879 17.5425 10.7472 17.648 10.8527C17.7535 10.9582 17.8127 11.1012 17.8127 11.2504C17.8127 11.3996 17.7535 11.5427 17.648 11.6482C17.5425 11.7537 17.3994 11.8129 17.2502 11.8129H12.001C11.8518 11.8129 11.7087 11.7537 11.6032 11.6482C11.4977 11.5427 11.4385 11.3996 11.4385 11.2504ZM12.001 13.6872C11.8518 13.6872 11.7087 13.7464 11.6032 13.8519C11.4977 13.9574 11.4385 14.1005 11.4385 14.2497C11.4385 14.3989 11.4977 14.5419 11.6032 14.6474C11.7087 14.7529 11.8518 14.8122 12.001 14.8122H14.251C14.4002 14.8122 14.5432 14.7529 14.6487 14.6474C14.7542 14.5419 14.8135 14.3989 14.8135 14.2497C14.8135 14.1005 14.7542 13.9574 14.6487 13.8519C14.5432 13.7464 14.4002 13.6872 14.251 13.6872H12.001Z" fill="url(#paint0_linear_2664_916)"/>
<path d="M15.6122 6.93719H14.9597C13.4916 6.93719 12.3362 6.93719 11.4329 7.05194C10.5081 7.16894 9.76335 7.41419 9.17385 7.96882C8.57873 8.52907 8.3121 9.24344 8.18498 10.1288C8.06348 10.9849 8.06348 12.0796 8.06348 13.4554V18.1557C8.06348 18.7744 8.06348 19.2661 8.08935 19.6654C8.11635 20.0738 8.1726 20.4248 8.3031 20.7567C8.50078 21.242 8.80032 21.6793 9.1815 22.0389C9.56267 22.3986 10.0166 22.6722 10.5126 22.8413C11.1426 23.0629 11.9076 23.0629 13.1339 23.0629H13.8966C15.8215 23.0607 16.978 23.0348 17.9331 22.6996C19.5947 22.1168 20.9189 20.8782 21.5466 19.2919C21.7536 18.7711 21.847 18.2063 21.8931 17.5122C21.9381 16.8259 21.9381 15.9777 21.9381 14.8842V12.9188C21.9381 11.7983 21.9381 10.9073 21.8549 10.1997C21.7694 9.46957 21.5894 8.86545 21.1799 8.35245C20.9627 8.07991 20.7077 7.83974 20.4227 7.63919C19.8861 7.26119 19.2595 7.09469 18.4967 7.01594C17.7497 6.93719 16.8081 6.93719 15.6122 6.93719ZM16.2951 21.8772C16.7126 21.3405 16.9387 20.6796 16.9375 19.9996C16.9375 19.8612 16.9319 19.7183 16.9262 19.5856L16.9229 19.5349C16.9184 19.4168 16.9127 19.3066 16.9105 19.1974C16.8986 18.9876 16.9157 18.7771 16.9611 18.5719C16.9923 18.4554 17.0537 18.3492 17.139 18.2638C17.2243 18.1785 17.3306 18.1172 17.4471 18.0859C17.6114 18.0409 17.8161 18.0297 18.0715 18.0353C18.1817 18.0376 18.2931 18.0421 18.4101 18.0477L18.4607 18.0499C18.5935 18.0567 18.7364 18.0623 18.8759 18.0623C19.5914 18.0623 20.2506 17.8171 20.7726 17.4042L20.7704 17.4379C20.7287 18.0769 20.6466 18.5112 20.5004 18.8779C19.9986 20.1447 18.931 21.1572 17.5607 21.6387C17.2086 21.7624 16.816 21.8344 16.2951 21.8772ZM20.8131 14.9854V15.0001C20.8131 16.0699 19.9457 16.9373 18.8759 16.9373C18.7656 16.9373 18.6464 16.9328 18.5136 16.9261L18.4641 16.9238C18.3482 16.9193 18.2211 16.9126 18.0951 16.9103C17.7797 16.8963 17.4639 16.9266 17.1569 17.0003C16.5314 17.1668 16.0431 17.6551 15.8744 18.2806C15.8009 18.588 15.771 18.9042 15.7855 19.2199C15.7877 19.3459 15.7945 19.4719 15.8001 19.5889L15.8024 19.6373C15.808 19.7712 15.8136 19.8893 15.8136 19.9996C15.8136 21.0571 14.9676 21.9154 13.9157 21.9368H13.2621C11.8649 21.9368 11.3114 21.9301 10.8861 21.7793C10.542 21.6635 10.2268 21.4753 9.96169 21.2272C9.69658 20.9792 9.48777 20.6772 9.34935 20.3416C9.2796 20.1649 9.23573 19.9444 9.2121 19.5912C9.18978 19.1067 9.18191 18.6216 9.18848 18.1366V13.5004C9.18848 12.0694 9.18848 11.0558 9.29873 10.2874C9.4056 9.53932 9.60585 9.10732 9.94448 8.78894C10.2887 8.46494 10.7624 8.27144 11.5735 8.16794C12.3981 8.06332 13.4826 8.06219 15.0002 8.06219H15.5807C16.8149 8.06219 17.698 8.06332 18.3797 8.13419C19.0525 8.20394 19.462 8.33782 19.7747 8.55832C19.975 8.69894 20.1516 8.86657 20.3001 9.05332C20.5262 9.33794 20.6646 9.70919 20.7377 10.3302C20.812 10.9658 20.8131 11.7904 20.8131 12.9548V14.9854Z" fill="url(#paint1_linear_2664_916)"/>
<defs>
<linearGradient id="paint0_linear_2664_916" x1="13.1003" y1="12.4185" x2="14.4813" y2="15.6966" gradientUnits="userSpaceOnUse">
<stop stop-color="white"/>
<stop offset="1" stop-color="white" stop-opacity="0.3"/>
</linearGradient>
<linearGradient id="paint1_linear_2664_916" x1="11.6808" y1="13.7036" x2="18.943" y2="23.3003" gradientUnits="userSpaceOnUse">
<stop stop-color="white"/>
<stop offset="1" stop-color="white" stop-opacity="0.3"/>
</linearGradient>
</defs>
</svg>
