<svg width="30" height="30" viewBox="0 0 30 30" fill="none" xmlns="http://www.w3.org/2000/svg">
<path d="M0 6C0 2.68629 2.68629 0 6 0H24C27.3137 0 30 2.68629 30 6V24C30 27.3137 27.3137 30 24 30H6C2.68629 30 0 27.3137 0 24V6Z" fill="#000A23"/>
<path d="M6 0.5H24C27.0376 0.5 29.5 2.96243 29.5 6V24C29.5 27.0376 27.0376 29.5 24 29.5H6C2.96243 29.5 0.5 27.0376 0.5 24V6C0.5 2.96243 2.96243 0.5 6 0.5Z" stroke="white" stroke-opacity="0.3"/>
<path d="M22.5413 9.75614C23.2753 11.2091 22.7482 12.9986 21.3183 13.8144L21.1785 13.8886C20.4431 14.2601 19.6222 14.3067 18.8843 14.0787L16.8162 17.4083C17.0509 17.6211 17.2576 17.8727 17.4231 18.1627L17.4981 18.3021C18.2319 19.755 17.705 21.5447 16.2752 22.3604L16.1354 22.4345C14.6827 23.1682 12.8934 22.6419 12.0776 21.2124L12.0034 21.0726C11.353 19.7856 11.6938 18.2367 12.7736 17.3322L10.9904 13.9996C9.59131 14.5483 7.96501 14.0035 7.19819 12.6597L7.12404 12.5199C6.41346 11.1138 6.88356 9.3929 8.21064 8.54392L8.34611 8.46213C9.8221 7.62024 11.7017 8.13412 12.5437 9.61005L12.6187 9.7494C12.748 10.0053 12.8367 10.2719 12.8896 10.5415L16.7776 10.5417C16.9359 9.74621 17.4045 9.01682 18.1332 8.55066L18.2686 8.46887C19.7447 7.62678 21.6242 8.14077 22.4663 9.61679L22.5413 9.75614ZM11.6751 10.1056C11.1068 9.10936 9.83793 8.76251 8.84165 9.33072C7.84549 9.89918 7.4984 11.168 8.06678 12.1642C8.63524 13.1602 9.90409 13.5073 10.9003 12.9391C11.8963 12.3707 12.2432 11.1018 11.6751 10.1056ZM16.5545 18.6583C15.9861 17.662 14.7174 17.315 13.7211 17.8834C12.7251 18.452 12.3779 19.7207 12.9462 20.7169C13.5146 21.7127 14.7836 22.0597 15.7797 21.4918C16.7758 20.9234 17.1226 19.6545 16.5545 18.6583ZM17.9871 13.6293C17.6437 13.3804 17.3446 13.0588 17.1207 12.6665L17.0466 12.5267C16.8866 12.2102 16.7899 11.8773 16.7459 11.5424L12.9183 11.5416C12.8183 12.286 12.4494 12.986 11.8511 13.4883L13.6325 16.8197C14.4057 16.5173 15.2469 16.5526 15.9752 16.8683L17.9871 13.6293ZM21.5977 10.1123C21.0293 9.11602 19.7605 8.76905 18.7642 9.33746C17.768 9.90592 17.4209 11.1747 17.9893 12.1709C18.5577 13.167 19.8266 13.514 20.8228 12.9458C21.819 12.3774 22.1659 11.1086 21.5977 10.1123Z" fill="url(#paint0_linear_2672_1605)"/>
<defs>
<linearGradient id="paint0_linear_2672_1605" x1="8.94884" y1="9.27118" x2="15.5324" y2="23.495" gradientUnits="userSpaceOnUse">
<stop stop-color="white"/>
<stop offset="1" stop-color="white" stop-opacity="0.3"/>
</linearGradient>
</defs>
</svg>
