<svg width="30" height="30" viewBox="0 0 30 30" fill="none" xmlns="http://www.w3.org/2000/svg">
<rect width="30" height="30" rx="6" fill="#000A23"/>
<rect x="0.5" y="0.5" width="29" height="29" rx="5.5" stroke="white" stroke-opacity="0.2"/>
<path fill-rule="evenodd" clip-rule="evenodd" d="M14.0137 6.55871C14.6253 6.21211 15.3747 6.21211 15.9863 6.55871L18.915 8.21886L21.8174 9.92589C22.4232 10.2823 22.798 10.931 22.8037 11.6339L22.8301 15.0001L22.8037 18.3663L22.7979 18.4982C22.7498 19.1497 22.3852 19.7402 21.8174 20.0743L18.915 21.7814L15.9863 23.4415L15.8701 23.5021C15.3207 23.7676 14.6793 23.7676 14.1299 23.5021L14.0137 23.4415L11.085 21.7814L8.18262 20.0743C7.57677 19.7178 7.20188 19.0693 7.19629 18.3663L7.16992 15.0001L7.19629 11.6339C7.20162 10.9748 7.53177 10.3637 8.07227 9.99621L8.18262 9.92589L11.085 8.21886L14.0137 6.55871ZM15.4932 7.42882C15.1874 7.25559 14.8126 7.25559 14.5068 7.42882L11.5781 9.08898L8.68945 10.7872C8.38653 10.9654 8.19918 11.2903 8.19629 11.6417L8.16992 15.0079L8.19629 18.3585C8.19908 18.71 8.38653 19.0348 8.68945 19.213L11.5781 20.9112L14.5068 22.5714C14.8127 22.7447 15.1873 22.7447 15.4932 22.5714L18.4219 20.9112L21.3105 19.213C21.6135 19.0348 21.8009 18.71 21.8037 18.3585L21.8301 15.0079L21.8037 11.6417C21.8008 11.2903 21.6135 10.9654 21.3105 10.7872L18.4219 9.08898L15.4932 7.42882Z" fill="url(#paint0_linear_2672_1637)"/>
<path d="M11.2539 13.1924C11.6637 13.1924 11.9901 13.2893 12.2334 13.4825C12.48 13.6724 12.6122 13.9406 12.6289 14.2871H11.5635C11.5601 14.1808 11.527 14.1012 11.4639 14.0479C11.4039 13.9945 11.3252 13.9678 11.2285 13.9678C11.1554 13.9679 11.0954 13.989 11.0488 14.0323C11.0022 14.0756 10.9785 14.1378 10.9785 14.2178C10.9786 14.2843 11.0038 14.3427 11.0537 14.3926C11.107 14.4393 11.1724 14.4809 11.249 14.5176C11.3257 14.5509 11.439 14.5942 11.5889 14.6475C11.812 14.7241 11.9954 14.8004 12.1387 14.877C12.2853 14.9503 12.4103 15.0558 12.5137 15.1924C12.6203 15.3257 12.6738 15.4956 12.6738 15.7022C12.6738 15.9122 12.6203 16.1009 12.5137 16.2676C12.4103 16.4342 12.2585 16.5655 12.0586 16.6621C11.8619 16.7588 11.6284 16.8076 11.3584 16.8076C10.9486 16.8076 10.6119 16.7109 10.3486 16.5176C10.0854 16.321 9.9439 16.0409 9.92383 15.6778H10.9688C10.9788 15.8009 11.0158 15.8907 11.0791 15.9473C11.1424 16.0039 11.2243 16.0323 11.3242 16.0323C11.414 16.0322 11.4874 16.011 11.5439 15.9678C11.6039 15.9211 11.6338 15.8574 11.6338 15.7774C11.6338 15.6741 11.5858 15.5938 11.4893 15.5371C11.3926 15.4805 11.2352 15.4177 11.0186 15.3477C10.7886 15.271 10.6023 15.197 10.459 15.127C10.319 15.0537 10.1955 14.9491 10.0889 14.8125C9.98556 14.6726 9.93362 14.4909 9.93359 14.2676C9.93359 14.041 9.99029 13.8475 10.1035 13.6875C10.2168 13.5242 10.3742 13.4007 10.5742 13.3174C10.7741 13.2342 11.0007 13.1924 11.2539 13.1924ZM14.5234 13.2471C14.8934 13.2471 15.2175 13.3227 15.4941 13.4727C15.774 13.6193 15.9887 13.8262 16.1387 14.0928C16.2886 14.3594 16.3643 14.6646 16.3643 15.0078C16.3642 15.3476 16.287 15.6505 16.1338 15.917C15.9838 16.1837 15.7692 16.3946 15.4893 16.5479C15.2126 16.6979 14.8901 16.7725 14.5234 16.7725H13.1289V13.2471H14.5234ZM17.7871 14.7676L18.8818 13.2471H20.0117L18.7168 14.9571L20.0762 16.7725H18.8916L17.7871 15.2276V16.7725H16.8066V13.2471H17.7871V14.7676ZM14.1094 15.9073H14.4492C14.7356 15.9072 14.9608 15.8294 15.124 15.6729C15.2873 15.5163 15.3691 15.2943 15.3691 15.0078C15.3691 14.7178 15.2874 14.4936 15.124 14.3369C14.9608 14.1771 14.7356 14.0977 14.4492 14.0977H14.1094V15.9073Z" fill="url(#paint1_linear_2672_1637)"/>
<defs>
<linearGradient id="paint0_linear_2672_1637" x1="11.2527" y1="13.6009" x2="18.9879" y2="24.2915" gradientUnits="userSpaceOnUse">
<stop stop-color="white"/>
<stop offset="1" stop-color="white" stop-opacity="0.3"/>
</linearGradient>
<linearGradient id="paint1_linear_2672_1637" x1="12.314" y1="14.1994" x2="22.7066" y2="22.5756" gradientUnits="userSpaceOnUse">
<stop offset="0.0299085" stop-color="white"/>
<stop offset="1" stop-color="white" stop-opacity="0.3"/>
</linearGradient>
</defs>
</svg>
