<svg width="30" height="30" viewBox="0 0 30 30" fill="none" xmlns="http://www.w3.org/2000/svg">
<path d="M0 6C0 2.68629 2.68629 0 6 0H24C27.3137 0 30 2.68629 30 6V24C30 27.3137 27.3137 30 24 30H6C2.68629 30 0 27.3137 0 24V6Z" fill="#000A23"/>
<path d="M6 0.5H24C27.0376 0.5 29.5 2.96243 29.5 6V24C29.5 27.0376 27.0376 29.5 24 29.5H6C2.96243 29.5 0.5 27.0376 0.5 24V6C0.5 2.96243 2.96243 0.5 6 0.5Z" stroke="white" stroke-opacity="0.2"/>
<g clip-path="url(#clip0_2672_1626)">
<path d="M12.6475 8.52832H14.5518V7.24805H15.5518V8.52832H17.4551V7.24805H18.4551V8.52832H20.0391C20.831 8.52832 21.4717 9.16798 21.4717 9.95996V11.584H22.7598V12.584H21.4717V14.4883H22.7598V15.4961H21.4717V17.4004H22.7598V18.4004H21.4717V20.1035C21.4717 20.8955 20.8311 21.5361 20.0391 21.5361H18.4551V22.8164H17.4551V21.5361H15.5518V22.8164H14.5518V21.5361H12.6475V22.8164H11.6475V21.5361H9.90332C9.11136 21.5361 8.47168 20.8955 8.47168 20.1035V18.4004H7.19141V17.4004H8.47168V15.4883H7.19141V14.4883H8.47168V12.584H7.19141V11.584H8.47168V9.95996C8.4717 9.16801 9.11137 8.52837 9.90332 8.52832H11.6475V7.24805H12.6475V8.52832ZM9.90332 9.52832C9.66337 9.52837 9.4717 9.72001 9.47168 9.95996V20.0957C9.47168 20.3357 9.66336 20.5283 9.90332 20.5283H20.0391C20.2791 20.5283 20.4717 20.3357 20.4717 20.0957V9.95996C20.4717 9.71998 20.279 9.52832 20.0391 9.52832H9.90332ZM17.5039 11.6641C17.9518 11.6642 18.3195 12.0324 18.3115 12.4883V17.4805C18.3113 17.9281 17.9517 18.2957 17.4961 18.2959H12.4961C12.0482 18.2959 11.6799 17.9362 11.6797 17.4805V12.4805C11.6797 12.0325 12.0401 11.6641 12.4961 11.6641H17.5039ZM12.6797 17.3037H17.3193V12.6641H12.6797V17.3037ZM14.4717 14.4404H13.4561V13.4238H14.4717V14.4404Z" fill="url(#paint0_linear_2672_1626)"/>
</g>
<defs>
<linearGradient id="paint0_linear_2672_1626" x1="12.4469" y1="8.00587" x2="14.9056" y2="23.2855" gradientUnits="userSpaceOnUse">
<stop stop-color="white"/>
<stop offset="1" stop-color="white" stop-opacity="0.3"/>
</linearGradient>
<clipPath id="clip0_2672_1626">
<rect width="16" height="16" fill="white" transform="translate(7 7)"/>
</clipPath>
</defs>
</svg>
