<svg width="16" height="16" viewBox="0 0 16 16" fill="none" xmlns="http://www.w3.org/2000/svg">
<path d="M11.433 10.5632V2.86419C11.433 2.39179 11.05 2.00879 10.5776 2.00879H2.87886C2.40646 2.00879 2.02344 2.39179 2.02344 2.86419V10.5632C2.02344 11.0352 2.40646 11.4186 2.87886 11.4186H10.5776C11.05 11.4186 11.433 11.0352 11.433 10.5632ZM9.72219 10.5632H3.73428C3.26188 10.5632 2.87886 10.1797 2.87886 9.70776V3.71961C2.87886 3.24721 3.26188 2.86419 3.73428 2.86419H9.72219C10.1946 2.86419 10.5776 3.2472 10.5776 3.71961V9.70778C10.5776 10.1797 10.1946 10.5632 9.72219 10.5632ZM13.1438 4.57503H12.2884V5.43045C12.7608 5.43045 13.1438 5.81347 13.1438 6.28607V12.274C13.1438 12.746 12.7608 13.1294 12.2884 13.1294H6.30051C5.82811 13.1294 5.44509 12.746 5.44509 12.274H4.58967V13.1294C4.58967 13.6014 4.97269 13.9848 5.44509 13.9848H13.1438C13.6162 13.9848 13.9993 13.6014 13.9993 13.1294V5.43045C13.9993 4.95804 13.6162 4.57503 13.1438 4.57503Z" fill="#666666"/>
</svg>
