<svg width="20" height="20" viewBox="0 0 20 20" fill="none" xmlns="http://www.w3.org/2000/svg">
<path d="M6.08817 8.96397C6.29133 8.92334 6.41322 8.72018 6.37259 8.51702C6.29133 8.11069 6.25069 7.66374 6.33196 7.21679C6.61638 5.30708 8.40419 4.00686 10.3139 4.29128C10.7609 4.37255 11.1672 4.49444 11.5735 4.73823C11.736 4.86013 11.9798 4.77887 12.1017 4.61634C12.2236 4.45381 12.1423 4.21002 11.9798 4.08812C11.4922 3.8037 11.0046 3.64117 10.4358 3.51927C8.11977 3.15358 5.96627 4.73823 5.60058 7.05426C5.51932 7.58248 5.51932 8.11069 5.64121 8.63891C5.68185 8.80144 5.84437 8.92334 6.0069 8.92334C6.0069 8.96397 6.04753 8.96397 6.08817 8.96397Z" fill="white"/>
<path d="M16.5305 11.7675C16.5305 11.2393 16.3273 10.7517 15.9616 10.4266C16.3273 9.614 16.5305 8.72009 16.5305 7.74492C16.5305 4.0474 13.4831 1 9.74492 1C6.0474 1 3 4.0474 3 7.74492C3 9.97968 4.09707 11.9707 5.76298 13.1896C5.76298 13.2709 5.80361 13.3115 5.80361 13.3928C5.88488 13.5959 5.96614 13.7991 6.0474 13.9616C6.65688 14.8962 7.34763 15.9526 8.03837 16.9684C8.72912 17.9842 9.74492 18.6343 11.0045 18.8781C11.167 18.9187 11.3296 18.9187 11.4515 18.9594C11.5327 18.9594 11.5734 18.9594 11.6546 19H12.7517C12.833 19 12.8736 18.9594 12.9549 18.9594C13.0767 18.9594 13.1986 18.9187 13.3205 18.9187C14.9458 18.6343 16.1648 17.4153 16.4492 15.8307C16.4898 15.5056 16.5305 15.1806 16.5305 14.8555V13.0271V11.7675ZM4.1377 7.74492C4.1377 4.65688 6.65688 2.1377 9.74492 2.1377C12.8736 2.1377 15.3928 4.65689 15.3928 7.78555C15.3928 8.55756 15.2302 9.32957 14.9458 10.0203H14.7833C14.6208 10.0203 14.4582 10.0609 14.2957 10.1016C14.1332 9.93905 13.93 9.81716 13.6862 9.73589C13.6456 9.73589 13.605 9.69526 13.5643 9.69526C13.7675 9.32957 13.8894 8.92325 13.9707 8.4763C14.1332 7.54176 13.9707 6.60722 13.4831 5.79458C13.4018 5.63205 13.158 5.55079 12.9549 5.63205C12.7923 5.71332 12.7111 5.95711 12.7923 6.16027C13.158 6.85102 13.3205 7.62302 13.1986 8.39503C13.1174 8.88262 12.9549 9.32957 12.7111 9.73589H12.6298C12.4673 9.614 12.3047 9.4921 12.0609 9.3702C11.8984 9.28894 11.7359 9.24831 11.5327 9.24831V7.94808C11.5327 7.01354 10.9233 6.3228 10.0293 6.16027H9.78555C8.89165 6.16027 8.11964 6.85102 8.03837 7.74492V10.8736C7.67269 10.6704 7.38826 10.4266 7.10384 10.1016C6.98194 9.93905 6.73815 9.93905 6.57562 10.0609C6.41309 10.1828 6.41309 10.4266 6.53499 10.5892L7.14447 11.1986C6.69752 11.3205 6.2912 11.605 6.0474 12.0113C6.0474 12.0113 6.0474 12.0519 6.00677 12.0519C4.82844 10.9142 4.1377 9.41084 4.1377 7.74492ZM15.3928 14.8149C15.3928 15.0587 15.3521 15.3431 15.3115 15.5869C15.1084 16.7246 14.2551 17.5779 13.1174 17.781C12.9549 17.8217 12.7517 17.8217 12.5892 17.8623H11.8172C11.614 17.8217 11.4108 17.8217 11.2077 17.781C10.2731 17.6185 9.50113 17.1716 8.97291 16.3589C8.3228 15.3837 7.67269 14.3679 7.02257 13.3928C6.98194 13.3115 6.94131 13.2302 6.90068 13.1084C6.77878 12.702 7.02257 12.2551 7.42889 12.1738H7.59142C7.83521 12.1738 8.03837 12.2957 8.24154 12.4989C8.52596 12.8646 8.76975 13.2302 9.05418 13.5959C9.09481 13.6366 9.09481 13.6772 9.13544 13.7178H9.17607V13.6366V7.98871V7.78555C9.2167 7.50113 9.50113 7.2167 9.78555 7.2167H9.86682C10.2325 7.25734 10.4357 7.50113 10.4357 7.86682V11.7269C10.4763 11.8081 10.5169 11.8488 10.5982 11.8488C10.6795 11.8488 10.7607 11.8081 10.7607 11.7269C10.8014 11.6862 10.8014 11.605 10.8014 11.5643V11.1174V10.9955C10.8014 10.7517 10.8826 10.5892 11.0858 10.4266L11.3296 10.3047H11.614C11.9391 10.4266 12.1016 10.6298 12.1016 10.9955V11.4424V11.1174V11.6456C12.1016 11.7675 12.1828 11.8081 12.3047 11.8081C12.4266 11.8081 12.4673 11.7269 12.4673 11.605V11.5643V11.3612C12.4673 11.1986 12.5079 11.0767 12.5892 10.9549C12.7111 10.7923 12.9142 10.7111 13.0767 10.7111C13.158 10.7111 13.1986 10.7111 13.2799 10.7517C13.5237 10.833 13.7269 11.0767 13.7269 11.4018V12.0926C13.7269 12.2144 13.8081 12.2551 13.8894 12.2551H13.93C14.0113 12.2551 14.0926 12.2144 14.0926 12.1332C14.0926 12.0926 14.1332 12.0113 14.1332 11.9707V11.8488V11.8081C14.1332 11.6862 14.1738 11.5643 14.2144 11.4831C14.2957 11.2393 14.5395 11.1174 14.7833 11.1174H14.9052C15.2302 11.1986 15.3928 11.4424 15.3928 11.7675V14.8149Z" fill="white"/>
</svg>
