<svg width="20" height="20" viewBox="0 0 20 20" fill="none" xmlns="http://www.w3.org/2000/svg">
<path d="M16 2C16.1768 2 16.3467 2.07029 16.4717 2.19531C16.5967 2.32033 16.667 2.4902 16.667 2.66699V10.2695L17.0137 10.0811C17.1152 10.0257 17.2301 9.9979 17.3457 10C17.4611 10.0022 17.5736 10.0349 17.6729 10.0938C17.7723 10.1527 17.8548 10.2364 17.9121 10.3369C17.9694 10.4374 18 10.5513 18 10.667V17.333C18 17.5098 17.9297 17.6797 17.8047 17.8047C17.6797 17.9297 17.5098 18 17.333 18H2.66699C2.49018 18 2.32034 17.9297 2.19531 17.8047C2.07029 17.6797 2 17.5098 2 17.333V10.667C1.99998 10.5514 2.02979 10.4374 2.08691 10.3369C2.14407 10.2365 2.22686 10.1528 2.32617 10.0938C2.42555 10.0348 2.53875 10.0021 2.6543 10C2.76995 9.99791 2.88479 10.0256 2.98633 10.0811L3.33398 10.2705V2.66699C3.33398 2.49018 3.40427 2.32034 3.5293 2.19531C3.65424 2.07047 3.82338 2.00007 4 2H16ZM10.3193 15.252C10.2214 15.3054 10.1116 15.333 10 15.333C9.88842 15.333 9.77861 15.3054 9.68066 15.252L3.33301 11.7891V16.667H16.667V11.7891L10.3193 15.252ZM4.66699 3.33301V10.9971L10 13.9072L15.334 10.9971V3.33301H4.66699ZM13.333 7.33301C13.5097 7.33301 13.6797 7.4034 13.8047 7.52832C13.9297 7.65334 14 7.82319 14 8C14 8.17681 13.9297 8.34666 13.8047 8.47168C13.6797 8.5966 13.5097 8.66699 13.333 8.66699H6.66699C6.49026 8.66699 6.32032 8.5966 6.19531 8.47168C6.07029 8.34666 6 8.17681 6 8C6 7.82319 6.07029 7.65334 6.19531 7.52832C6.32032 7.4034 6.49026 7.33301 6.66699 7.33301H13.333ZM9.33301 4.66699C9.50982 4.66699 9.67966 4.73728 9.80469 4.8623C9.92953 4.98724 9.99991 5.15639 10 5.33301C10 5.50982 9.92971 5.67966 9.80469 5.80469C9.67966 5.92971 9.50982 6 9.33301 6H6.66699C6.4902 5.99997 6.32031 5.92971 6.19531 5.80469C6.07032 5.67967 6 5.50979 6 5.33301C6.00009 5.15642 6.0705 4.98723 6.19531 4.8623C6.32031 4.73728 6.4902 4.66702 6.66699 4.66699H9.33301Z" fill="white"/>
</svg>
