<svg width="20" height="20" viewBox="0 0 20 20" fill="none" xmlns="http://www.w3.org/2000/svg">
<path d="M10 19C15 17.5 17.5 15 17.5 11V5.537C17.5001 5.09619 17.3546 4.66769 17.086 4.31813C16.8175 3.96856 16.4409 3.71751 16.015 3.604L10 2L3.985 3.604C3.55905 3.71751 3.18254 3.96856 2.91399 4.31813C2.64544 4.66769 2.4999 5.09619 2.5 5.537V11C2.5 15 5 17.5 10 19ZM9.999 17.43L9.79 17.36C5.742 16.013 4 14.035 4 11V5.537C3.9998 5.4267 4.03607 5.31943 4.10317 5.23189C4.17027 5.14435 4.26444 5.08146 4.371 5.053L10 3.553L15.63 5.053C15.7226 5.07775 15.8062 5.12862 15.8708 5.19954C15.9353 5.27046 15.9781 5.35844 15.994 5.453L16.001 5.537V11C16.001 14.034 14.259 16.012 10.211 17.36L10 17.43H9.999Z" fill="white"/>
<path d="M10.0002 5.25C10.6641 5.24979 11.3057 5.48977 11.8065 5.92563C12.3073 6.3615 12.6335 6.96382 12.7249 7.62141C12.8163 8.279 12.6667 8.94746 12.3037 9.50338C11.9408 10.0593 11.389 10.4651 10.7502 10.646V11.5H12.0002C12.1172 11.5 12.2305 11.541 12.3204 11.6159C12.4103 11.6908 12.4711 11.7949 12.4922 11.91L12.5002 12V12.5C12.5002 12.6326 12.4475 12.7598 12.3537 12.8536C12.26 12.9473 12.1328 13 12.0002 13H10.7502V14.5C10.7502 14.6326 10.6975 14.7598 10.6037 14.8536C10.51 14.9473 10.3828 15 10.2502 15H9.75018C9.61757 15 9.49039 14.9473 9.39663 14.8536C9.30286 14.7598 9.25018 14.6326 9.25018 14.5V10.647C8.61197 10.4654 8.06089 10.0593 7.6985 9.50348C7.3361 8.94765 7.18681 8.27956 7.27814 7.62234C7.36948 6.96512 7.69527 6.36306 8.19549 5.9271C8.69571 5.49114 9.33664 5.25067 10.0002 5.25ZM10.0002 6.75C9.66866 6.75 9.35072 6.8817 9.1163 7.11612C8.88188 7.35054 8.75018 7.66848 8.75018 8C8.75018 8.33152 8.88188 8.64946 9.1163 8.88388C9.35072 9.1183 9.66866 9.25 10.0002 9.25C10.3317 9.25 10.6496 9.1183 10.8841 8.88388C11.1185 8.64946 11.2502 8.33152 11.2502 8C11.2502 7.66848 11.1185 7.35054 10.8841 7.11612C10.6496 6.8817 10.3317 6.75 10.0002 6.75Z" fill="white"/>
</svg>
