<svg width="19" height="17" viewBox="0 0 19 17" fill="none" xmlns="http://www.w3.org/2000/svg">
<path d="M18.3223 13.8756L10.9841 1.16543C10.0864 -0.388477 8.61922 -0.388477 7.72157 1.16543L0.383287 13.8756C-0.514369 15.4318 0.219224 16.6998 2.01454 16.6998H16.6934C18.4864 16.7021 19.22 15.4318 18.3223 13.8756ZM9.26844 14.6654C8.8536 14.6654 8.5161 14.3279 8.5161 13.9131C8.5161 13.4982 8.8536 13.1607 9.26844 13.1607C9.68329 13.1607 10.0208 13.4982 10.0208 13.9131C10.0208 14.3303 9.68329 14.6654 9.26844 14.6654ZM10.0208 11.3232C10.0208 11.7381 9.68329 12.0756 9.26844 12.0756C8.8536 12.0756 8.5161 11.7381 8.5161 11.3232V4.98809C8.5161 4.57324 8.8536 4.23574 9.26844 4.23574C9.68329 4.23574 10.0208 4.57324 10.0208 4.98809V11.3232Z" fill="#FFDB26"/>
</svg>
