<svg width="32" height="32" viewBox="0 0 32 32" fill="none" xmlns="http://www.w3.org/2000/svg">
<g clip-path="url(#clip0_2345_1522)">
<path d="M29 16.31V6C29 2.718 22.46 1 16 1C9.54 1 3 2.718 3 6V27C3 30.282 9.54 32 16 32C17.581 32 19.076 31.906 20.443 31.722C20.502 31.714 20.549 31.683 20.603 31.666C21.383 31.8864 22.1895 31.9988 23 32C27.963 32 32 27.963 32 23C32.0025 21.736 31.7363 20.4859 31.2191 19.3325C30.7019 18.1792 29.9455 17.1489 29 16.31ZM16 3C23.117 3 27 4.981 27 6C27 7.019 23.117 9 16 9C8.883 9 5 7.019 5 6C5 4.981 8.883 3 16 3ZM5 8.783C7.426 10.243 11.725 11 16 11C20.275 11 24.574 10.243 27 8.783V14.945C25.7585 14.3226 24.3888 13.999 23 14C20.95 14 18.983 14.701 17.39 15.973C16.935 15.99 16.472 16 16 16C8.883 16 5 14.019 5 13V8.783ZM5 15.783C7.338 17.19 11.415 17.94 15.535 17.993C14.5502 19.4576 14.0175 21.1792 14.003 22.944C8.089 22.611 5 20.9 5 20V15.783ZM16 30C8.883 30 5 28.019 5 27V22.781C7.142 24.066 10.707 24.784 14.235 24.957C14.6825 26.924 15.7752 28.6847 17.339 29.959C16.896 29.976 16.461 30 16 30ZM23 30C21.2949 29.9942 19.65 29.3689 18.3718 28.2404C17.0936 27.1119 16.2691 25.5572 16.052 23.866C15.9292 22.8811 16.0173 21.8814 16.3103 20.9331C16.6034 19.9848 17.0948 19.1097 17.7518 18.3659C18.4089 17.622 19.2166 17.0263 20.1214 16.6185C21.0263 16.2106 22.0075 15.9997 23 16C24.574 16 26.066 16.515 27.314 17.488C28.1536 18.14 28.8324 18.976 29.298 19.9316C29.7637 20.8872 30.0039 21.937 30 23C30 26.86 26.86 30 23 30Z" fill="white"/>
<path d="M26.2649 19.322L21.4679 24.526L19.7339 22.651C19.6453 22.5525 19.538 22.4725 19.4182 22.4158C19.2985 22.3591 19.1686 22.3267 19.0362 22.3206C18.9039 22.3145 18.7716 22.3348 18.6471 22.3803C18.5226 22.4257 18.4084 22.4955 18.3112 22.5855C18.2139 22.6755 18.1355 22.7839 18.0805 22.9045C18.0254 23.025 17.995 23.1553 17.9907 23.2878C17.9865 23.4202 18.0087 23.5522 18.0559 23.676C18.1032 23.7998 18.1745 23.913 18.2659 24.009L20.7359 26.679C20.7449 26.689 20.7579 26.692 20.7669 26.701C20.7769 26.711 20.7809 26.725 20.7919 26.735C20.8489 26.788 20.9169 26.816 20.9819 26.853C21.0219 26.876 21.0539 26.907 21.0949 26.923C21.2149 26.973 21.3419 27 21.4699 27C21.599 26.9989 21.7267 26.9728 21.8459 26.923C21.8859 26.907 21.9179 26.876 21.9559 26.854C22.0219 26.817 22.0909 26.788 22.1479 26.734C22.1589 26.724 22.1629 26.711 22.1729 26.701C22.1829 26.691 22.1959 26.688 22.2049 26.678L27.7349 20.678C27.9118 20.4826 28.0043 20.2252 27.9924 19.9619C27.9805 19.6987 27.8652 19.4507 27.6715 19.272C27.4777 19.0933 27.2213 18.9983 26.9579 19.0077C26.6945 19.017 26.4455 19.13 26.2649 19.322Z" fill="white"/>
</g>
<defs>
<clipPath id="clip0_2345_1522">
<rect width="32" height="32" fill="white"/>
</clipPath>
</defs>
</svg>
