<svg width="33" height="31" viewBox="0 0 33 31" fill="none" xmlns="http://www.w3.org/2000/svg">
<path d="M0 4C0 1.79086 1.79086 0 4 0H26C28.2091 0 30 1.79086 30 4V20H0V4Z" fill="url(#paint0_linear_2345_1499)"/>
<path d="M14.458 25C15.0915 27.0169 16.3466 28.7585 17.999 30H11V28H14V25H14.458ZM26 0C28.2091 0 30 1.79086 30 4V13.999C29.3848 13.5369 28.7137 13.1459 28 12.834V4C28 2.89543 27.1046 2 26 2H4C2.89543 2 2 2.89543 2 4V16H15.999C15.537 16.6151 15.1468 17.2864 14.835 18H2V19C2 20.1046 2.89543 21 4 21H14.0498C14.0171 21.3289 14 21.6625 14 22C14 22.3375 14.0171 22.6711 14.0498 23H4L3.79395 22.9951C1.7488 22.8913 0.108652 21.2512 0.00488281 19.2061L0 19V4C2.25493e-07 1.79086 1.79086 1.12745e-07 4 0H26Z" fill="white"/>
<circle cx="24" cy="22" r="8" stroke="white" stroke-width="2"/>
<path d="M22.7152 19.0792V17.6367C22.7152 17.6367 22.7193 17.5601 22.5688 17.527C22.4425 17.4993 22.3217 17.5845 22.3217 17.5845C22.2682 17.6224 19.7771 19.389 19.7771 19.389C19.7771 19.389 19.5391 19.5106 19.5391 19.7508C19.5391 19.9855 19.7078 20.0812 19.7078 20.0812L22.2672 21.8376C22.2672 21.8376 22.4294 21.8968 22.5676 21.8676C22.7168 21.836 22.7152 21.7269 22.7152 21.7269V20.3766H25.2053C25.2053 20.3766 27.1685 20.6404 27.1685 21.3682C27.1685 21.3682 27.1355 19.0792 25.1419 19.0792L22.7152 19.0792ZM25.2619 24.8969V26.3408C25.2619 26.3408 25.2884 26.4287 25.4485 26.4498C25.5554 26.4638 25.622 26.4095 25.6454 26.393C25.699 26.355 28.1924 24.5869 28.1924 24.5869C28.1924 24.5869 28.4306 24.4651 28.4306 24.2247C28.4306 23.9898 28.2618 23.894 28.2618 23.894L25.6999 22.1361C25.6999 22.1361 25.5933 22.0715 25.4485 22.1093C25.2695 22.156 25.2619 22.2469 25.2619 22.2469V23.5983H22.7592C22.7592 23.5983 20.7942 23.3343 20.7942 22.6059C20.7942 22.6059 20.8272 24.8969 22.8226 24.8969L25.2619 24.8969Z" fill="white"/>
<defs>
<linearGradient id="paint0_linear_2345_1499" x1="15" y1="3.05178e-08" x2="15" y2="19" gradientUnits="userSpaceOnUse">
<stop stop-color="#D9D9D9" stop-opacity="0"/>
<stop offset="0.740396" stop-color="#BEBEBE" stop-opacity="0.1"/>
</linearGradient>
</defs>
</svg>
