<svg width="30" height="27" viewBox="0 0 30 27" fill="none" xmlns="http://www.w3.org/2000/svg">
<path d="M28.9401 14.5813C29.5255 14.5813 30 14.103 30 13.5129C30 12.9228 29.5255 12.4445 28.9401 12.4445H16.0775V9.94818H20.0508C20.6459 9.94818 21.1283 9.46187 21.1283 8.86199V1.0862C21.1283 0.486311 20.6459 0 20.0508 0H9.94922C9.35414 0 8.87172 0.486311 8.87172 1.0862V8.86195C8.87172 9.46184 9.35414 9.94815 9.94922 9.94815H13.9225V12.4445H1.05985C0.474503 12.4445 0 12.9228 0 13.5129C0 14.103 0.474503 14.5813 1.05985 14.5813H5.89527V17.0518H1.92199C1.32691 17.0518 0.84449 17.5381 0.84449 18.138V25.9138C0.84449 26.5137 1.32691 27 1.92199 27H12.0235C12.6186 27 13.101 26.5137 13.101 25.9138V18.138C13.101 17.5382 12.6186 17.0518 12.0235 17.0518H8.05026V14.5813H21.9307V17.0518H17.8022C17.2072 17.0518 16.7247 17.5382 16.7247 18.138V25.9138C16.7247 26.5137 17.2072 27 17.8022 27H27.9038C28.4989 27 28.9813 26.5137 28.9813 25.9138V18.138C28.9813 17.5382 28.4989 17.0518 27.9038 17.0518H24.0857V14.5813L28.9401 14.5813ZM11.0267 2.1724H18.9733V7.77575H11.0267V2.1724ZM10.946 24.8276H2.99949V19.2242H10.946V24.8276ZM26.8263 24.8276H18.8797V19.2242H26.8263V24.8276Z" fill="white"/>
</svg>
