<svg width="30" height="30" viewBox="0 0 30 30" fill="none" xmlns="http://www.w3.org/2000/svg">
<path d="M3.66667 15.6667H11.6667V7.66667H3.66667V15.6667ZM3.66667 18.3333V26.3333H11.6667V18.3333H3.66667ZM14.3333 15.6667H22.244C23.72 15.6667 25 16.7347 25 18.1853V26.4813C25 27.9333 23.7187 29 22.244 29H2.33333C2.15824 29 1.98486 28.9655 1.82309 28.8985C1.66132 28.8315 1.51434 28.7333 1.39052 28.6095C1.26671 28.4857 1.1685 28.3387 1.10149 28.1769C1.03449 28.0151 1 27.8418 1 27.6667V6.33333C1 5.97971 1.14048 5.64057 1.39052 5.39052C1.64057 5.14048 1.97971 5 2.33333 5H13C13.3536 5 13.6928 5.14048 13.9428 5.39052C14.1929 5.64057 14.3333 5.97971 14.3333 6.33333V15.6667ZM14.3333 18.3333V26.3333H22.244C22.32 26.3333 22.332 26.3373 22.3333 26.4053V18.2613C22.332 18.328 22.32 18.3333 22.244 18.3333H14.3333ZM19.6667 3.66667V10.3333H26.3333V3.66667H19.6667ZM18.3333 1H27.6667C27.8418 1 28.0151 1.03449 28.1769 1.10149C28.3387 1.1685 28.4857 1.26671 28.6095 1.39052C28.7333 1.51434 28.8315 1.66132 28.8985 1.82309C28.9655 1.98486 29 2.15824 29 2.33333V11.6667C29 11.8418 28.9655 12.0151 28.8985 12.1769C28.8315 12.3387 28.7333 12.4857 28.6095 12.6095C28.4857 12.7333 28.3387 12.8315 28.1769 12.8985C28.0151 12.9655 27.8418 13 27.6667 13H18.3333C18.1582 13 17.9849 12.9655 17.8231 12.8985C17.6613 12.8315 17.5143 12.7333 17.3905 12.6095C17.2667 12.4857 17.1685 12.3387 17.1015 12.1769C17.0345 12.0151 17 11.8418 17 11.6667V2.33333C17 1.97971 17.1405 1.64057 17.3905 1.39052C17.6406 1.14048 17.9797 1 18.3333 1Z" fill="white"/>
</svg>
